<?xml version="1.0" encoding="utf-8"?>
<!-- Generator: Adobe Illustrator 16.0.4, SVG Export Plug-In . SVG Version: 6.00 Build 0)  -->
<!DOCTYPE svg PUBLIC "-//W3C//DTD SVG 1.1//EN" "http://www.w3.org/Graphics/SVG/1.1/DTD/svg11.dtd">
<svg version="1.1" id="Layer_1" xmlns="http://www.w3.org/2000/svg" xmlns:xlink="http://www.w3.org/1999/xlink" x="0px" y="0px"
	 width="329px" height="259px" viewBox="0 0 329 259" enable-background="new 0 0 329 259" xml:space="preserve">
<g>
	<g>
		<path fill="#1F1160" d="M149.409,11.39h82.053c21.243,0,37.698,5.694,49.367,17.087c11.666,11.393,17.5,27.548,17.5,48.458
			c0,10.896-1.925,21.823-5.769,32.772c-3.847,10.953-11.949,20.47-24.311,28.562c-12.363,8.09-27.881,12.136-46.561,12.136h-18.127
			v91.419h-54.153V11.39z M203.562,55.801v49.367h11.836c8.771,0,15.76-2.285,20.965-6.854c5.207-4.565,7.812-10.979,7.812-19.235
			c0-7.812-2.003-13.642-6.004-17.5c-4-3.849-10.002-5.777-18.003-5.777L203.562,55.801L203.562,55.801z"/>
	</g>
	<g>
		<path fill="#AF2216" d="M13.001,11.39h57.651l25.439,151.475L122.354,11.39h58.479l-58.479,230.434h-53.19L13.001,11.39z"/>
	</g>
</g>
</svg>
